<mxfile host="app.diagrams.net" agent="Mozilla/5.0 (Macintosh; Intel Mac OS X 10_15_7) AppleWebKit/605.1.15 (KHTML, like Gecko) Version/18.4 Safari/605.1.15" version="26.2.13">
  <diagram name="Page-1" id="6hFknK2ox_vcwR2I_v-v">
    <mxGraphModel dx="1087" dy="2355" grid="1" gridSize="10" guides="1" tooltips="1" connect="1" arrows="1" fold="1" page="0" pageScale="1" pageWidth="850" pageHeight="1100" math="0" shadow="0">
      <root>
        <mxCell id="0" />
        <mxCell id="1" parent="0" />
        <mxCell id="azbPT-HdKcKJtjN6OLWc-18" style="rounded=0;orthogonalLoop=1;jettySize=auto;html=1;fontSize=12;startSize=8;endSize=8;entryX=0;entryY=0.5;entryDx=0;entryDy=0;" parent="1" source="azbPT-HdKcKJtjN6OLWc-2" target="azbPT-HdKcKJtjN6OLWc-11" edge="1">
          <mxGeometry relative="1" as="geometry">
            <mxPoint x="99" y="-760" as="targetPoint" />
          </mxGeometry>
        </mxCell>
        <mxCell id="K-XwLlyLnPU8esgIP24X-13" style="edgeStyle=orthogonalEdgeStyle;rounded=0;orthogonalLoop=1;jettySize=auto;html=1;entryX=0;entryY=0.5;entryDx=0;entryDy=0;fontSize=12;startSize=8;endSize=8;" edge="1" parent="1" source="azbPT-HdKcKJtjN6OLWc-2" target="K-XwLlyLnPU8esgIP24X-1">
          <mxGeometry relative="1" as="geometry" />
        </mxCell>
        <mxCell id="K-XwLlyLnPU8esgIP24X-14" style="edgeStyle=orthogonalEdgeStyle;rounded=0;orthogonalLoop=1;jettySize=auto;html=1;entryX=0;entryY=0.5;entryDx=0;entryDy=0;fontSize=12;startSize=8;endSize=8;" edge="1" parent="1" source="azbPT-HdKcKJtjN6OLWc-2" target="K-XwLlyLnPU8esgIP24X-8">
          <mxGeometry relative="1" as="geometry" />
        </mxCell>
        <mxCell id="K-XwLlyLnPU8esgIP24X-15" style="edgeStyle=orthogonalEdgeStyle;rounded=0;orthogonalLoop=1;jettySize=auto;html=1;entryX=0;entryY=0.5;entryDx=0;entryDy=0;fontSize=12;startSize=8;endSize=8;" edge="1" parent="1" source="azbPT-HdKcKJtjN6OLWc-2" target="K-XwLlyLnPU8esgIP24X-7">
          <mxGeometry relative="1" as="geometry" />
        </mxCell>
        <mxCell id="K-XwLlyLnPU8esgIP24X-18" style="edgeStyle=orthogonalEdgeStyle;rounded=0;orthogonalLoop=1;jettySize=auto;html=1;entryX=0;entryY=0.5;entryDx=0;entryDy=0;fontSize=12;startSize=8;endSize=8;" edge="1" parent="1" source="azbPT-HdKcKJtjN6OLWc-2" target="K-XwLlyLnPU8esgIP24X-17">
          <mxGeometry relative="1" as="geometry" />
        </mxCell>
        <mxCell id="K-XwLlyLnPU8esgIP24X-80" style="edgeStyle=orthogonalEdgeStyle;rounded=0;orthogonalLoop=1;jettySize=auto;html=1;entryX=0.5;entryY=1;entryDx=0;entryDy=0;fontSize=12;startSize=8;endSize=8;" edge="1" parent="1" source="azbPT-HdKcKJtjN6OLWc-2" target="K-XwLlyLnPU8esgIP24X-79">
          <mxGeometry relative="1" as="geometry" />
        </mxCell>
        <mxCell id="azbPT-HdKcKJtjN6OLWc-2" value="Cliente" style="whiteSpace=wrap;html=1;align=center;" parent="1" vertex="1">
          <mxGeometry x="-100" y="-780" width="100" height="40" as="geometry" />
        </mxCell>
        <mxCell id="azbPT-HdKcKJtjN6OLWc-20" style="edgeStyle=none;curved=1;rounded=0;orthogonalLoop=1;jettySize=auto;html=1;fontSize=12;startSize=8;endSize=8;entryX=0.5;entryY=0;entryDx=0;entryDy=0;" parent="1" source="azbPT-HdKcKJtjN6OLWc-4" target="azbPT-HdKcKJtjN6OLWc-34" edge="1">
          <mxGeometry relative="1" as="geometry">
            <mxPoint x="380" y="-680" as="targetPoint" />
          </mxGeometry>
        </mxCell>
        <mxCell id="K-XwLlyLnPU8esgIP24X-47" style="edgeStyle=orthogonalEdgeStyle;rounded=0;orthogonalLoop=1;jettySize=auto;html=1;entryX=0;entryY=0.5;entryDx=0;entryDy=0;fontSize=12;startSize=8;endSize=8;" edge="1" parent="1" source="azbPT-HdKcKJtjN6OLWc-4" target="K-XwLlyLnPU8esgIP24X-46">
          <mxGeometry relative="1" as="geometry" />
        </mxCell>
        <mxCell id="K-XwLlyLnPU8esgIP24X-48" style="edgeStyle=orthogonalEdgeStyle;rounded=0;orthogonalLoop=1;jettySize=auto;html=1;entryX=0;entryY=0.5;entryDx=0;entryDy=0;fontSize=12;startSize=8;endSize=8;" edge="1" parent="1" source="azbPT-HdKcKJtjN6OLWc-4" target="K-XwLlyLnPU8esgIP24X-45">
          <mxGeometry relative="1" as="geometry" />
        </mxCell>
        <mxCell id="K-XwLlyLnPU8esgIP24X-84" style="edgeStyle=orthogonalEdgeStyle;rounded=0;orthogonalLoop=1;jettySize=auto;html=1;entryX=0;entryY=0.5;entryDx=0;entryDy=0;fontSize=12;startSize=8;endSize=8;" edge="1" parent="1" source="azbPT-HdKcKJtjN6OLWc-4" target="K-XwLlyLnPU8esgIP24X-83">
          <mxGeometry relative="1" as="geometry" />
        </mxCell>
        <mxCell id="K-XwLlyLnPU8esgIP24X-91" style="edgeStyle=orthogonalEdgeStyle;rounded=0;orthogonalLoop=1;jettySize=auto;html=1;entryX=0;entryY=0.5;entryDx=0;entryDy=0;fontSize=12;startSize=8;endSize=8;" edge="1" parent="1" source="azbPT-HdKcKJtjN6OLWc-4" target="K-XwLlyLnPU8esgIP24X-90">
          <mxGeometry relative="1" as="geometry" />
        </mxCell>
        <mxCell id="azbPT-HdKcKJtjN6OLWc-4" value="Pedido de compra" style="shape=ext;margin=3;double=1;whiteSpace=wrap;html=1;align=center;" parent="1" vertex="1">
          <mxGeometry x="330" y="-780" width="100" height="40" as="geometry" />
        </mxCell>
        <mxCell id="K-XwLlyLnPU8esgIP24X-70" style="edgeStyle=orthogonalEdgeStyle;rounded=0;orthogonalLoop=1;jettySize=auto;html=1;entryX=0;entryY=0.5;entryDx=0;entryDy=0;fontSize=12;startSize=8;endSize=8;" edge="1" parent="1" source="azbPT-HdKcKJtjN6OLWc-5" target="K-XwLlyLnPU8esgIP24X-67">
          <mxGeometry relative="1" as="geometry" />
        </mxCell>
        <mxCell id="K-XwLlyLnPU8esgIP24X-72" style="edgeStyle=orthogonalEdgeStyle;rounded=0;orthogonalLoop=1;jettySize=auto;html=1;entryX=0;entryY=0.5;entryDx=0;entryDy=0;fontSize=12;startSize=8;endSize=8;" edge="1" parent="1" source="azbPT-HdKcKJtjN6OLWc-5" target="K-XwLlyLnPU8esgIP24X-66">
          <mxGeometry relative="1" as="geometry" />
        </mxCell>
        <mxCell id="K-XwLlyLnPU8esgIP24X-74" style="edgeStyle=orthogonalEdgeStyle;rounded=0;orthogonalLoop=1;jettySize=auto;html=1;fontSize=12;startSize=8;endSize=8;entryX=0;entryY=0.5;entryDx=0;entryDy=0;" edge="1" parent="1" source="azbPT-HdKcKJtjN6OLWc-5" target="K-XwLlyLnPU8esgIP24X-73">
          <mxGeometry relative="1" as="geometry">
            <mxPoint x="-10" y="-320" as="targetPoint" />
          </mxGeometry>
        </mxCell>
        <mxCell id="K-XwLlyLnPU8esgIP24X-82" style="edgeStyle=orthogonalEdgeStyle;rounded=0;orthogonalLoop=1;jettySize=auto;html=1;entryX=1;entryY=0.5;entryDx=0;entryDy=0;fontSize=12;startSize=8;endSize=8;" edge="1" parent="1" source="azbPT-HdKcKJtjN6OLWc-5" target="K-XwLlyLnPU8esgIP24X-81">
          <mxGeometry relative="1" as="geometry" />
        </mxCell>
        <mxCell id="azbPT-HdKcKJtjN6OLWc-5" value="Editorial" style="whiteSpace=wrap;html=1;align=center;" parent="1" vertex="1">
          <mxGeometry x="-70" y="-400" width="100" height="40" as="geometry" />
        </mxCell>
        <mxCell id="K-XwLlyLnPU8esgIP24X-51" style="edgeStyle=none;curved=1;rounded=0;orthogonalLoop=1;jettySize=auto;html=1;entryX=0;entryY=0.5;entryDx=0;entryDy=0;fontSize=12;startSize=8;endSize=8;" edge="1" parent="1" source="azbPT-HdKcKJtjN6OLWc-9" target="K-XwLlyLnPU8esgIP24X-50">
          <mxGeometry relative="1" as="geometry" />
        </mxCell>
        <mxCell id="K-XwLlyLnPU8esgIP24X-88" style="edgeStyle=orthogonalEdgeStyle;rounded=0;orthogonalLoop=1;jettySize=auto;html=1;entryX=0;entryY=0.5;entryDx=0;entryDy=0;fontSize=12;startSize=8;endSize=8;" edge="1" parent="1" source="azbPT-HdKcKJtjN6OLWc-9" target="K-XwLlyLnPU8esgIP24X-87">
          <mxGeometry relative="1" as="geometry" />
        </mxCell>
        <mxCell id="K-XwLlyLnPU8esgIP24X-100" style="edgeStyle=orthogonalEdgeStyle;rounded=0;orthogonalLoop=1;jettySize=auto;html=1;fontSize=12;startSize=8;endSize=8;entryX=0;entryY=0.5;entryDx=0;entryDy=0;" edge="1" parent="1" source="azbPT-HdKcKJtjN6OLWc-9" target="K-XwLlyLnPU8esgIP24X-99">
          <mxGeometry relative="1" as="geometry">
            <mxPoint x="470" y="-50" as="targetPoint" />
          </mxGeometry>
        </mxCell>
        <mxCell id="azbPT-HdKcKJtjN6OLWc-9" value="Inventario" style="shape=ext;margin=3;double=1;whiteSpace=wrap;html=1;align=center;" parent="1" vertex="1">
          <mxGeometry x="330" y="-190" width="100" height="40" as="geometry" />
        </mxCell>
        <mxCell id="azbPT-HdKcKJtjN6OLWc-25" value="" style="edgeStyle=none;curved=1;rounded=0;orthogonalLoop=1;jettySize=auto;html=1;fontSize=12;startSize=8;endSize=8;" parent="1" source="azbPT-HdKcKJtjN6OLWc-10" target="azbPT-HdKcKJtjN6OLWc-24" edge="1">
          <mxGeometry relative="1" as="geometry" />
        </mxCell>
        <mxCell id="azbPT-HdKcKJtjN6OLWc-30" value="" style="edgeStyle=none;curved=1;rounded=0;orthogonalLoop=1;jettySize=auto;html=1;fontSize=12;startSize=8;endSize=8;" parent="1" source="azbPT-HdKcKJtjN6OLWc-10" target="azbPT-HdKcKJtjN6OLWc-29" edge="1">
          <mxGeometry relative="1" as="geometry" />
        </mxCell>
        <mxCell id="K-XwLlyLnPU8esgIP24X-59" style="edgeStyle=orthogonalEdgeStyle;rounded=0;orthogonalLoop=1;jettySize=auto;html=1;entryX=0;entryY=0.5;entryDx=0;entryDy=0;fontSize=12;startSize=8;endSize=8;" edge="1" parent="1" source="azbPT-HdKcKJtjN6OLWc-10" target="K-XwLlyLnPU8esgIP24X-52">
          <mxGeometry relative="1" as="geometry" />
        </mxCell>
        <mxCell id="K-XwLlyLnPU8esgIP24X-60" style="edgeStyle=orthogonalEdgeStyle;rounded=0;orthogonalLoop=1;jettySize=auto;html=1;exitX=1;exitY=0.5;exitDx=0;exitDy=0;entryX=0;entryY=0.5;entryDx=0;entryDy=0;fontSize=12;startSize=8;endSize=8;" edge="1" parent="1" source="azbPT-HdKcKJtjN6OLWc-10" target="K-XwLlyLnPU8esgIP24X-58">
          <mxGeometry relative="1" as="geometry" />
        </mxCell>
        <mxCell id="K-XwLlyLnPU8esgIP24X-61" style="edgeStyle=orthogonalEdgeStyle;rounded=0;orthogonalLoop=1;jettySize=auto;html=1;entryX=0;entryY=0.5;entryDx=0;entryDy=0;fontSize=12;startSize=8;endSize=8;" edge="1" parent="1" source="azbPT-HdKcKJtjN6OLWc-10" target="K-XwLlyLnPU8esgIP24X-57">
          <mxGeometry relative="1" as="geometry" />
        </mxCell>
        <mxCell id="K-XwLlyLnPU8esgIP24X-62" style="edgeStyle=orthogonalEdgeStyle;rounded=0;orthogonalLoop=1;jettySize=auto;html=1;entryX=0;entryY=0.5;entryDx=0;entryDy=0;fontSize=12;startSize=8;endSize=8;" edge="1" parent="1" source="azbPT-HdKcKJtjN6OLWc-10" target="K-XwLlyLnPU8esgIP24X-56">
          <mxGeometry relative="1" as="geometry" />
        </mxCell>
        <mxCell id="K-XwLlyLnPU8esgIP24X-63" style="edgeStyle=none;curved=1;rounded=0;orthogonalLoop=1;jettySize=auto;html=1;entryX=0;entryY=0.5;entryDx=0;entryDy=0;fontSize=12;startSize=8;endSize=8;" edge="1" parent="1" source="azbPT-HdKcKJtjN6OLWc-10" target="K-XwLlyLnPU8esgIP24X-55">
          <mxGeometry relative="1" as="geometry" />
        </mxCell>
        <mxCell id="K-XwLlyLnPU8esgIP24X-64" style="edgeStyle=orthogonalEdgeStyle;rounded=0;orthogonalLoop=1;jettySize=auto;html=1;entryX=0;entryY=0.5;entryDx=0;entryDy=0;fontSize=12;startSize=8;endSize=8;" edge="1" parent="1" source="azbPT-HdKcKJtjN6OLWc-10" target="K-XwLlyLnPU8esgIP24X-54">
          <mxGeometry relative="1" as="geometry" />
        </mxCell>
        <mxCell id="K-XwLlyLnPU8esgIP24X-65" style="edgeStyle=orthogonalEdgeStyle;rounded=0;orthogonalLoop=1;jettySize=auto;html=1;entryX=0;entryY=0.5;entryDx=0;entryDy=0;fontSize=12;startSize=8;endSize=8;" edge="1" parent="1" source="azbPT-HdKcKJtjN6OLWc-10" target="K-XwLlyLnPU8esgIP24X-53">
          <mxGeometry relative="1" as="geometry" />
        </mxCell>
        <mxCell id="K-XwLlyLnPU8esgIP24X-86" style="edgeStyle=orthogonalEdgeStyle;rounded=0;orthogonalLoop=1;jettySize=auto;html=1;entryX=0;entryY=0.5;entryDx=0;entryDy=0;fontSize=12;startSize=8;endSize=8;" edge="1" parent="1" source="azbPT-HdKcKJtjN6OLWc-10" target="K-XwLlyLnPU8esgIP24X-85">
          <mxGeometry relative="1" as="geometry" />
        </mxCell>
        <mxCell id="K-XwLlyLnPU8esgIP24X-97" style="edgeStyle=orthogonalEdgeStyle;rounded=0;orthogonalLoop=1;jettySize=auto;html=1;entryX=0;entryY=0.5;entryDx=0;entryDy=0;fontSize=12;startSize=8;endSize=8;" edge="1" parent="1" source="azbPT-HdKcKJtjN6OLWc-10" target="K-XwLlyLnPU8esgIP24X-96">
          <mxGeometry relative="1" as="geometry" />
        </mxCell>
        <mxCell id="azbPT-HdKcKJtjN6OLWc-10" value="Libro" style="shape=ext;margin=3;double=1;whiteSpace=wrap;html=1;align=center;" parent="1" vertex="1">
          <mxGeometry x="330" y="-400" width="100" height="40" as="geometry" />
        </mxCell>
        <mxCell id="azbPT-HdKcKJtjN6OLWc-14" value="" style="edgeStyle=none;curved=1;rounded=0;orthogonalLoop=1;jettySize=auto;html=1;fontSize=12;startSize=8;endSize=8;" parent="1" source="azbPT-HdKcKJtjN6OLWc-11" target="azbPT-HdKcKJtjN6OLWc-4" edge="1">
          <mxGeometry relative="1" as="geometry" />
        </mxCell>
        <mxCell id="azbPT-HdKcKJtjN6OLWc-11" value="compra" style="shape=rhombus;perimeter=rhombusPerimeter;whiteSpace=wrap;html=1;align=center;" parent="1" vertex="1">
          <mxGeometry x="110" y="-790" width="120" height="60" as="geometry" />
        </mxCell>
        <mxCell id="azbPT-HdKcKJtjN6OLWc-15" value="(1,N)" style="text;html=1;align=center;verticalAlign=middle;resizable=0;points=[];autosize=1;strokeColor=none;fillColor=none;fontSize=16;" parent="1" vertex="1">
          <mxGeometry x="40" y="-800" width="60" height="30" as="geometry" />
        </mxCell>
        <mxCell id="azbPT-HdKcKJtjN6OLWc-17" value="(1,1)" style="text;html=1;align=center;verticalAlign=middle;resizable=0;points=[];autosize=1;strokeColor=none;fillColor=none;fontSize=16;" parent="1" vertex="1">
          <mxGeometry x="260" y="-800" width="60" height="30" as="geometry" />
        </mxCell>
        <mxCell id="azbPT-HdKcKJtjN6OLWc-22" value="(1,N)" style="text;html=1;align=center;verticalAlign=middle;resizable=0;points=[];autosize=1;strokeColor=none;fillColor=none;fontSize=16;" parent="1" vertex="1">
          <mxGeometry x="380" y="-740" width="60" height="30" as="geometry" />
        </mxCell>
        <mxCell id="azbPT-HdKcKJtjN6OLWc-23" value="(1,N)" style="text;html=1;align=center;verticalAlign=middle;resizable=0;points=[];autosize=1;strokeColor=none;fillColor=none;fontSize=16;" parent="1" vertex="1">
          <mxGeometry x="380" y="-430" width="60" height="30" as="geometry" />
        </mxCell>
        <mxCell id="azbPT-HdKcKJtjN6OLWc-26" value="" style="edgeStyle=none;curved=1;rounded=0;orthogonalLoop=1;jettySize=auto;html=1;fontSize=12;startSize=8;endSize=8;" parent="1" source="azbPT-HdKcKJtjN6OLWc-24" target="azbPT-HdKcKJtjN6OLWc-5" edge="1">
          <mxGeometry relative="1" as="geometry" />
        </mxCell>
        <mxCell id="azbPT-HdKcKJtjN6OLWc-24" value="Pertenece" style="shape=rhombus;perimeter=rhombusPerimeter;whiteSpace=wrap;html=1;align=center;" parent="1" vertex="1">
          <mxGeometry x="130" y="-410" width="120" height="60" as="geometry" />
        </mxCell>
        <mxCell id="azbPT-HdKcKJtjN6OLWc-27" value="(1,1)" style="text;html=1;align=center;verticalAlign=middle;resizable=0;points=[];autosize=1;strokeColor=none;fillColor=none;fontSize=16;" parent="1" vertex="1">
          <mxGeometry x="270" y="-410" width="60" height="30" as="geometry" />
        </mxCell>
        <mxCell id="azbPT-HdKcKJtjN6OLWc-28" value="(1,N)" style="text;html=1;align=center;verticalAlign=middle;resizable=0;points=[];autosize=1;strokeColor=none;fillColor=none;fontSize=16;" parent="1" vertex="1">
          <mxGeometry x="40" y="-410" width="60" height="30" as="geometry" />
        </mxCell>
        <mxCell id="azbPT-HdKcKJtjN6OLWc-31" value="" style="edgeStyle=none;curved=1;rounded=0;orthogonalLoop=1;jettySize=auto;html=1;fontSize=12;startSize=8;endSize=8;" parent="1" source="azbPT-HdKcKJtjN6OLWc-29" target="azbPT-HdKcKJtjN6OLWc-9" edge="1">
          <mxGeometry relative="1" as="geometry" />
        </mxCell>
        <mxCell id="azbPT-HdKcKJtjN6OLWc-29" value="Existe" style="shape=rhombus;perimeter=rhombusPerimeter;whiteSpace=wrap;html=1;align=center;" parent="1" vertex="1">
          <mxGeometry x="320" y="-300" width="120" height="60" as="geometry" />
        </mxCell>
        <mxCell id="azbPT-HdKcKJtjN6OLWc-32" value="(1,N)" style="text;html=1;align=center;verticalAlign=middle;resizable=0;points=[];autosize=1;strokeColor=none;fillColor=none;fontSize=16;" parent="1" vertex="1">
          <mxGeometry x="390" y="-350" width="60" height="30" as="geometry" />
        </mxCell>
        <mxCell id="azbPT-HdKcKJtjN6OLWc-33" value="(0,1)" style="text;html=1;align=center;verticalAlign=middle;resizable=0;points=[];autosize=1;strokeColor=none;fillColor=none;fontSize=16;" parent="1" vertex="1">
          <mxGeometry x="400" y="-240" width="60" height="30" as="geometry" />
        </mxCell>
        <mxCell id="azbPT-HdKcKJtjN6OLWc-38" style="edgeStyle=none;curved=1;rounded=0;orthogonalLoop=1;jettySize=auto;html=1;exitX=0.5;exitY=1;exitDx=0;exitDy=0;fontSize=12;startSize=8;endSize=8;" parent="1" source="azbPT-HdKcKJtjN6OLWc-34" target="azbPT-HdKcKJtjN6OLWc-10" edge="1">
          <mxGeometry relative="1" as="geometry" />
        </mxCell>
        <mxCell id="K-XwLlyLnPU8esgIP24X-94" style="edgeStyle=orthogonalEdgeStyle;rounded=0;orthogonalLoop=1;jettySize=auto;html=1;entryX=1;entryY=0.5;entryDx=0;entryDy=0;fontSize=12;startSize=8;endSize=8;" edge="1" parent="1" source="azbPT-HdKcKJtjN6OLWc-34" target="K-XwLlyLnPU8esgIP24X-92">
          <mxGeometry relative="1" as="geometry" />
        </mxCell>
        <mxCell id="K-XwLlyLnPU8esgIP24X-95" style="edgeStyle=orthogonalEdgeStyle;rounded=0;orthogonalLoop=1;jettySize=auto;html=1;entryX=1;entryY=0.5;entryDx=0;entryDy=0;fontSize=12;startSize=8;endSize=8;" edge="1" parent="1" source="azbPT-HdKcKJtjN6OLWc-34" target="K-XwLlyLnPU8esgIP24X-93">
          <mxGeometry relative="1" as="geometry" />
        </mxCell>
        <mxCell id="K-XwLlyLnPU8esgIP24X-103" style="edgeStyle=orthogonalEdgeStyle;rounded=0;orthogonalLoop=1;jettySize=auto;html=1;entryX=1;entryY=0.5;entryDx=0;entryDy=0;fontSize=12;startSize=8;endSize=8;" edge="1" parent="1" source="azbPT-HdKcKJtjN6OLWc-34" target="K-XwLlyLnPU8esgIP24X-102">
          <mxGeometry relative="1" as="geometry" />
        </mxCell>
        <mxCell id="K-XwLlyLnPU8esgIP24X-104" style="edgeStyle=orthogonalEdgeStyle;rounded=0;orthogonalLoop=1;jettySize=auto;html=1;entryX=1;entryY=0.5;entryDx=0;entryDy=0;fontSize=12;startSize=8;endSize=8;" edge="1" parent="1" source="azbPT-HdKcKJtjN6OLWc-34" target="K-XwLlyLnPU8esgIP24X-101">
          <mxGeometry relative="1" as="geometry" />
        </mxCell>
        <mxCell id="azbPT-HdKcKJtjN6OLWc-34" value="contiene" style="shape=associativeEntity;whiteSpace=wrap;html=1;align=center;" parent="1" vertex="1">
          <mxGeometry x="310" y="-640" width="140" height="60" as="geometry" />
        </mxCell>
        <mxCell id="azbPT-HdKcKJtjN6OLWc-39" value="Items" style="text;html=1;align=center;verticalAlign=middle;resizable=0;points=[];autosize=1;strokeColor=none;fillColor=none;fontSize=16;" parent="1" vertex="1">
          <mxGeometry x="310" y="-670" width="60" height="30" as="geometry" />
        </mxCell>
        <mxCell id="azbPT-HdKcKJtjN6OLWc-40" value="(1,N)" style="text;html=1;align=center;verticalAlign=middle;resizable=0;points=[];autosize=1;strokeColor=none;fillColor=none;fontSize=16;" parent="1" vertex="1">
          <mxGeometry x="380" y="-670" width="60" height="30" as="geometry" />
        </mxCell>
        <mxCell id="azbPT-HdKcKJtjN6OLWc-42" value="(1,N)" style="text;html=1;align=center;verticalAlign=middle;resizable=0;points=[];autosize=1;strokeColor=none;fillColor=none;fontSize=16;" parent="1" vertex="1">
          <mxGeometry x="380" y="-580" width="60" height="30" as="geometry" />
        </mxCell>
        <mxCell id="K-XwLlyLnPU8esgIP24X-1" value="Nombre" style="ellipse;whiteSpace=wrap;html=1;align=center;" vertex="1" parent="1">
          <mxGeometry x="-10" y="-1070" width="100" height="40" as="geometry" />
        </mxCell>
        <mxCell id="K-XwLlyLnPU8esgIP24X-7" value="Telefono" style="ellipse;whiteSpace=wrap;html=1;align=center;" vertex="1" parent="1">
          <mxGeometry x="-10" y="-970" width="100" height="40" as="geometry" />
        </mxCell>
        <mxCell id="K-XwLlyLnPU8esgIP24X-22" style="edgeStyle=orthogonalEdgeStyle;rounded=0;orthogonalLoop=1;jettySize=auto;html=1;entryX=0;entryY=0.5;entryDx=0;entryDy=0;fontSize=12;startSize=8;endSize=8;" edge="1" parent="1" source="K-XwLlyLnPU8esgIP24X-8" target="K-XwLlyLnPU8esgIP24X-19">
          <mxGeometry relative="1" as="geometry" />
        </mxCell>
        <mxCell id="K-XwLlyLnPU8esgIP24X-23" style="edgeStyle=orthogonalEdgeStyle;rounded=0;orthogonalLoop=1;jettySize=auto;html=1;entryX=0;entryY=0.5;entryDx=0;entryDy=0;fontSize=12;startSize=8;endSize=8;" edge="1" parent="1" source="K-XwLlyLnPU8esgIP24X-8" target="K-XwLlyLnPU8esgIP24X-20">
          <mxGeometry relative="1" as="geometry" />
        </mxCell>
        <mxCell id="K-XwLlyLnPU8esgIP24X-25" style="edgeStyle=orthogonalEdgeStyle;rounded=0;orthogonalLoop=1;jettySize=auto;html=1;entryX=0;entryY=0.5;entryDx=0;entryDy=0;fontSize=12;startSize=8;endSize=8;" edge="1" parent="1" source="K-XwLlyLnPU8esgIP24X-8" target="K-XwLlyLnPU8esgIP24X-21">
          <mxGeometry relative="1" as="geometry" />
        </mxCell>
        <mxCell id="K-XwLlyLnPU8esgIP24X-26" style="edgeStyle=orthogonalEdgeStyle;rounded=0;orthogonalLoop=1;jettySize=auto;html=1;entryX=0;entryY=0.5;entryDx=0;entryDy=0;fontSize=12;startSize=8;endSize=8;" edge="1" parent="1" source="K-XwLlyLnPU8esgIP24X-8" target="K-XwLlyLnPU8esgIP24X-24">
          <mxGeometry relative="1" as="geometry" />
        </mxCell>
        <mxCell id="K-XwLlyLnPU8esgIP24X-8" value="Dirección" style="ellipse;whiteSpace=wrap;html=1;align=center;" vertex="1" parent="1">
          <mxGeometry x="-10" y="-1020" width="100" height="40" as="geometry" />
        </mxCell>
        <mxCell id="K-XwLlyLnPU8esgIP24X-17" value="Email" style="ellipse;whiteSpace=wrap;html=1;align=center;" vertex="1" parent="1">
          <mxGeometry x="-10" y="-915" width="100" height="40" as="geometry" />
        </mxCell>
        <mxCell id="K-XwLlyLnPU8esgIP24X-19" value="Calle" style="ellipse;whiteSpace=wrap;html=1;align=center;dashed=1;" vertex="1" parent="1">
          <mxGeometry x="130" y="-1045" width="100" height="40" as="geometry" />
        </mxCell>
        <mxCell id="K-XwLlyLnPU8esgIP24X-20" value="Barrio" style="ellipse;whiteSpace=wrap;html=1;align=center;dashed=1;" vertex="1" parent="1">
          <mxGeometry x="130" y="-985" width="100" height="40" as="geometry" />
        </mxCell>
        <mxCell id="K-XwLlyLnPU8esgIP24X-21" value="Ciudad" style="ellipse;whiteSpace=wrap;html=1;align=center;dashed=1;" vertex="1" parent="1">
          <mxGeometry x="130" y="-925" width="100" height="40" as="geometry" />
        </mxCell>
        <mxCell id="K-XwLlyLnPU8esgIP24X-24" value="Estado" style="ellipse;whiteSpace=wrap;html=1;align=center;dashed=1;" vertex="1" parent="1">
          <mxGeometry x="130" y="-875" width="100" height="40" as="geometry" />
        </mxCell>
        <mxCell id="K-XwLlyLnPU8esgIP24X-33" style="edgeStyle=orthogonalEdgeStyle;rounded=0;orthogonalLoop=1;jettySize=auto;html=1;entryX=0.5;entryY=0;entryDx=0;entryDy=0;fontSize=12;startSize=8;endSize=8;" edge="1" parent="1" source="K-XwLlyLnPU8esgIP24X-28" target="K-XwLlyLnPU8esgIP24X-31">
          <mxGeometry relative="1" as="geometry" />
        </mxCell>
        <mxCell id="K-XwLlyLnPU8esgIP24X-34" style="edgeStyle=orthogonalEdgeStyle;rounded=0;orthogonalLoop=1;jettySize=auto;html=1;entryX=0.5;entryY=0;entryDx=0;entryDy=0;fontSize=12;startSize=8;endSize=8;" edge="1" parent="1" source="K-XwLlyLnPU8esgIP24X-28" target="K-XwLlyLnPU8esgIP24X-32">
          <mxGeometry relative="1" as="geometry" />
        </mxCell>
        <mxCell id="K-XwLlyLnPU8esgIP24X-28" value="ID" style="strokeWidth=2;html=1;shape=mxgraph.flowchart.extract_or_measurement;whiteSpace=wrap;" vertex="1" parent="1">
          <mxGeometry x="-280" y="-740" width="95" height="60" as="geometry" />
        </mxCell>
        <mxCell id="K-XwLlyLnPU8esgIP24X-30" style="edgeStyle=orthogonalEdgeStyle;rounded=0;orthogonalLoop=1;jettySize=auto;html=1;entryX=0.5;entryY=0;entryDx=0;entryDy=0;entryPerimeter=0;fontSize=12;startSize=8;endSize=8;" edge="1" parent="1" source="azbPT-HdKcKJtjN6OLWc-2" target="K-XwLlyLnPU8esgIP24X-28">
          <mxGeometry relative="1" as="geometry" />
        </mxCell>
        <mxCell id="K-XwLlyLnPU8esgIP24X-40" style="edgeStyle=orthogonalEdgeStyle;rounded=0;orthogonalLoop=1;jettySize=auto;html=1;entryX=0;entryY=0.5;entryDx=0;entryDy=0;fontSize=12;startSize=8;endSize=8;" edge="1" parent="1" source="K-XwLlyLnPU8esgIP24X-31" target="K-XwLlyLnPU8esgIP24X-35">
          <mxGeometry relative="1" as="geometry" />
        </mxCell>
        <mxCell id="K-XwLlyLnPU8esgIP24X-31" value="PN" style="rounded=1;arcSize=10;whiteSpace=wrap;html=1;align=center;" vertex="1" parent="1">
          <mxGeometry x="-380" y="-600" width="100" height="40" as="geometry" />
        </mxCell>
        <mxCell id="K-XwLlyLnPU8esgIP24X-42" style="edgeStyle=orthogonalEdgeStyle;rounded=0;orthogonalLoop=1;jettySize=auto;html=1;entryX=0;entryY=0.5;entryDx=0;entryDy=0;fontSize=12;startSize=8;endSize=8;" edge="1" parent="1" source="K-XwLlyLnPU8esgIP24X-32" target="K-XwLlyLnPU8esgIP24X-38">
          <mxGeometry relative="1" as="geometry" />
        </mxCell>
        <mxCell id="K-XwLlyLnPU8esgIP24X-43" style="edgeStyle=orthogonalEdgeStyle;rounded=0;orthogonalLoop=1;jettySize=auto;html=1;fontSize=12;startSize=8;endSize=8;entryX=0;entryY=0.5;entryDx=0;entryDy=0;" edge="1" parent="1" source="K-XwLlyLnPU8esgIP24X-32" target="K-XwLlyLnPU8esgIP24X-37">
          <mxGeometry relative="1" as="geometry">
            <mxPoint x="-140" y="-510" as="targetPoint" />
          </mxGeometry>
        </mxCell>
        <mxCell id="K-XwLlyLnPU8esgIP24X-32" value="PJ" style="rounded=1;arcSize=10;whiteSpace=wrap;html=1;align=center;" vertex="1" parent="1">
          <mxGeometry x="-190" y="-600" width="100" height="40" as="geometry" />
        </mxCell>
        <mxCell id="K-XwLlyLnPU8esgIP24X-35" value="DNI" style="ellipse;whiteSpace=wrap;html=1;align=center;" vertex="1" parent="1">
          <mxGeometry x="-310" y="-540" width="100" height="40" as="geometry" />
        </mxCell>
        <mxCell id="K-XwLlyLnPU8esgIP24X-37" value="RUES" style="ellipse;whiteSpace=wrap;html=1;align=center;" vertex="1" parent="1">
          <mxGeometry x="-120" y="-480" width="100" height="40" as="geometry" />
        </mxCell>
        <mxCell id="K-XwLlyLnPU8esgIP24X-38" value="NIT" style="ellipse;whiteSpace=wrap;html=1;align=center;" vertex="1" parent="1">
          <mxGeometry x="-120" y="-540" width="100" height="40" as="geometry" />
        </mxCell>
        <mxCell id="K-XwLlyLnPU8esgIP24X-39" value="RUT" style="ellipse;whiteSpace=wrap;html=1;align=center;" vertex="1" parent="1">
          <mxGeometry x="-310" y="-480" width="100" height="40" as="geometry" />
        </mxCell>
        <mxCell id="K-XwLlyLnPU8esgIP24X-41" style="edgeStyle=orthogonalEdgeStyle;rounded=0;orthogonalLoop=1;jettySize=auto;html=1;entryX=0;entryY=0.75;entryDx=0;entryDy=0;entryPerimeter=0;fontSize=12;startSize=8;endSize=8;" edge="1" parent="1" source="K-XwLlyLnPU8esgIP24X-31" target="K-XwLlyLnPU8esgIP24X-39">
          <mxGeometry relative="1" as="geometry" />
        </mxCell>
        <mxCell id="K-XwLlyLnPU8esgIP24X-45" value="Valor" style="ellipse;whiteSpace=wrap;html=1;align=center;" vertex="1" parent="1">
          <mxGeometry x="490" y="-747.5" width="100" height="40" as="geometry" />
        </mxCell>
        <mxCell id="K-XwLlyLnPU8esgIP24X-46" value="Fecha" style="ellipse;whiteSpace=wrap;html=1;align=center;" vertex="1" parent="1">
          <mxGeometry x="490" y="-812.5" width="100" height="40" as="geometry" />
        </mxCell>
        <mxCell id="K-XwLlyLnPU8esgIP24X-50" value="Cantidad" style="ellipse;whiteSpace=wrap;html=1;align=center;" vertex="1" parent="1">
          <mxGeometry x="480" y="-190" width="100" height="40" as="geometry" />
        </mxCell>
        <mxCell id="K-XwLlyLnPU8esgIP24X-52" value="Titutlo" style="ellipse;whiteSpace=wrap;html=1;align=center;" vertex="1" parent="1">
          <mxGeometry x="490" y="-600" width="100" height="40" as="geometry" />
        </mxCell>
        <mxCell id="K-XwLlyLnPU8esgIP24X-53" value="Autor/a" style="ellipse;whiteSpace=wrap;html=1;align=center;" vertex="1" parent="1">
          <mxGeometry x="490" y="-300" width="100" height="40" as="geometry" />
        </mxCell>
        <mxCell id="K-XwLlyLnPU8esgIP24X-54" value="Editorial" style="ellipse;whiteSpace=wrap;html=1;align=center;" vertex="1" parent="1">
          <mxGeometry x="490" y="-350" width="100" height="40" as="geometry" />
        </mxCell>
        <mxCell id="K-XwLlyLnPU8esgIP24X-55" value="Valor" style="ellipse;whiteSpace=wrap;html=1;align=center;" vertex="1" parent="1">
          <mxGeometry x="480" y="-400" width="100" height="40" as="geometry" />
        </mxCell>
        <mxCell id="K-XwLlyLnPU8esgIP24X-56" value="Año_Publicación" style="ellipse;whiteSpace=wrap;html=1;align=center;" vertex="1" parent="1">
          <mxGeometry x="490" y="-450" width="100" height="40" as="geometry" />
        </mxCell>
        <mxCell id="K-XwLlyLnPU8esgIP24X-57" value="ISBN" style="ellipse;whiteSpace=wrap;html=1;align=center;" vertex="1" parent="1">
          <mxGeometry x="490" y="-500" width="100" height="40" as="geometry" />
        </mxCell>
        <mxCell id="K-XwLlyLnPU8esgIP24X-58" value="Categoría" style="ellipse;whiteSpace=wrap;html=1;align=center;" vertex="1" parent="1">
          <mxGeometry x="490" y="-550" width="100" height="40" as="geometry" />
        </mxCell>
        <mxCell id="K-XwLlyLnPU8esgIP24X-66" value="Email" style="ellipse;whiteSpace=wrap;html=1;align=center;" vertex="1" parent="1">
          <mxGeometry y="-230" width="100" height="40" as="geometry" />
        </mxCell>
        <mxCell id="K-XwLlyLnPU8esgIP24X-67" value="Nombre" style="ellipse;whiteSpace=wrap;html=1;align=center;" vertex="1" parent="1">
          <mxGeometry y="-280" width="100" height="40" as="geometry" />
        </mxCell>
        <mxCell id="K-XwLlyLnPU8esgIP24X-77" value="" style="edgeStyle=none;curved=1;rounded=0;orthogonalLoop=1;jettySize=auto;html=1;fontSize=12;startSize=8;endSize=8;" edge="1" parent="1" source="K-XwLlyLnPU8esgIP24X-73" target="K-XwLlyLnPU8esgIP24X-76">
          <mxGeometry relative="1" as="geometry" />
        </mxCell>
        <mxCell id="K-XwLlyLnPU8esgIP24X-78" style="edgeStyle=orthogonalEdgeStyle;rounded=0;orthogonalLoop=1;jettySize=auto;html=1;entryX=0;entryY=0.5;entryDx=0;entryDy=0;fontSize=12;startSize=8;endSize=8;" edge="1" parent="1" source="K-XwLlyLnPU8esgIP24X-73" target="K-XwLlyLnPU8esgIP24X-75">
          <mxGeometry relative="1" as="geometry" />
        </mxCell>
        <mxCell id="K-XwLlyLnPU8esgIP24X-73" value="Telefono" style="ellipse;shape=doubleEllipse;margin=3;whiteSpace=wrap;html=1;align=center;" vertex="1" parent="1">
          <mxGeometry y="-340" width="100" height="40" as="geometry" />
        </mxCell>
        <mxCell id="K-XwLlyLnPU8esgIP24X-75" value="Telefono 2" style="ellipse;whiteSpace=wrap;html=1;align=center;dashed=1;" vertex="1" parent="1">
          <mxGeometry x="150" y="-290" width="100" height="40" as="geometry" />
        </mxCell>
        <mxCell id="K-XwLlyLnPU8esgIP24X-76" value="Telefono 1" style="ellipse;whiteSpace=wrap;html=1;align=center;dashed=1;" vertex="1" parent="1">
          <mxGeometry x="150" y="-340" width="100" height="40" as="geometry" />
        </mxCell>
        <mxCell id="K-XwLlyLnPU8esgIP24X-79" value="Codigo Cliente" style="ellipse;whiteSpace=wrap;html=1;align=center;fontStyle=4;" vertex="1" parent="1">
          <mxGeometry x="-250" y="-885" width="100" height="40" as="geometry" />
        </mxCell>
        <mxCell id="K-XwLlyLnPU8esgIP24X-81" value="Codigo Editorial" style="ellipse;whiteSpace=wrap;html=1;align=center;fontStyle=4;" vertex="1" parent="1">
          <mxGeometry x="-170" y="-340" width="100" height="40" as="geometry" />
        </mxCell>
        <mxCell id="K-XwLlyLnPU8esgIP24X-83" value="Codigo Cliente" style="ellipse;whiteSpace=wrap;html=1;align=center;fontStyle=4;" vertex="1" parent="1">
          <mxGeometry x="490" y="-945" width="100" height="40" as="geometry" />
        </mxCell>
        <mxCell id="K-XwLlyLnPU8esgIP24X-85" value="Codigo_editorial" style="ellipse;whiteSpace=wrap;html=1;align=center;fontStyle=4;" vertex="1" parent="1">
          <mxGeometry x="490" y="-650" width="100" height="40" as="geometry" />
        </mxCell>
        <mxCell id="K-XwLlyLnPU8esgIP24X-87" value="Codigo Editorial" style="ellipse;whiteSpace=wrap;html=1;align=center;fontStyle=4;" vertex="1" parent="1">
          <mxGeometry x="480" y="-130" width="100" height="40" as="geometry" />
        </mxCell>
        <mxCell id="K-XwLlyLnPU8esgIP24X-90" value="Codigo Pedido" style="ellipse;whiteSpace=wrap;html=1;align=center;fontStyle=4;" vertex="1" parent="1">
          <mxGeometry x="490" y="-890" width="100" height="40" as="geometry" />
        </mxCell>
        <mxCell id="K-XwLlyLnPU8esgIP24X-92" value="Cantidad" style="ellipse;whiteSpace=wrap;html=1;align=center;" vertex="1" parent="1">
          <mxGeometry x="150" y="-660" width="100" height="40" as="geometry" />
        </mxCell>
        <mxCell id="K-XwLlyLnPU8esgIP24X-93" value="Valor" style="ellipse;whiteSpace=wrap;html=1;align=center;" vertex="1" parent="1">
          <mxGeometry x="150" y="-585" width="100" height="40" as="geometry" />
        </mxCell>
        <mxCell id="K-XwLlyLnPU8esgIP24X-96" value="Codigo_libro" style="ellipse;whiteSpace=wrap;html=1;align=center;fontStyle=4;" vertex="1" parent="1">
          <mxGeometry x="490" y="-245" width="100" height="40" as="geometry" />
        </mxCell>
        <mxCell id="K-XwLlyLnPU8esgIP24X-99" value="Codigo libro" style="ellipse;whiteSpace=wrap;html=1;align=center;fontStyle=4;" vertex="1" parent="1">
          <mxGeometry x="480" y="-70" width="100" height="40" as="geometry" />
        </mxCell>
        <mxCell id="K-XwLlyLnPU8esgIP24X-101" value="Codigo Pedido" style="ellipse;whiteSpace=wrap;html=1;align=center;fontStyle=4;" vertex="1" parent="1">
          <mxGeometry x="150" y="-710" width="100" height="40" as="geometry" />
        </mxCell>
        <mxCell id="K-XwLlyLnPU8esgIP24X-102" value="Codigo libro" style="ellipse;whiteSpace=wrap;html=1;align=center;fontStyle=4;" vertex="1" parent="1">
          <mxGeometry x="150" y="-530" width="100" height="40" as="geometry" />
        </mxCell>
      </root>
    </mxGraphModel>
  </diagram>
</mxfile>
